<svg xmlns="http://www.w3.org/2000/svg" viewBox="0 0 16 16" shape-rendering="crispEdges">
  <g fill="#35302E">
    <rect x="3" y="1" width="2" height="1"/>
    <rect x="11" y="1" width="2" height="1"/>
    <rect x="5" y="2" width="1" height="1"/>
    <rect x="10" y="2" width="1" height="1"/>
    <rect x="2" y="2" width="1" height="2"/>
    <rect x="13" y="2" width="1" height="2"/>
    <rect x="5" y="3" width="6" height="1"/>
    <rect x="3" y="4" width="1" height="1"/>
    <rect x="12" y="4" width="1" height="1"/>
    <rect x="2" y="5" width="1" height="1"/>
    <rect x="13" y="5" width="1" height="1"/>
    <rect x="5" y="5" width="1" height="1"/>
    <rect x="10" y="5" width="1" height="1"/>
    <rect x="1" y="6" width="1" height="4"/>
    <rect x="14" y="6" width="1" height="4"/>
    <rect x="4" y="6" width="1" height="2"/>
    <rect x="11" y="6" width="1" height="2"/>
    <rect x="2" y="10" width="1" height="2"/>
    <rect x="13" y="10" width="1" height="2"/>
    <rect x="3" y="12" width="1" height="1"/>
    <rect x="12" y="12" width="1" height="1"/>
    <rect x="4" y="13" width="2" height="1"/>
    <rect x="10" y="13" width="2" height="1"/>
    <rect x="6" y="14" width="4" height="1"/>
  </g>
  <g fill="#C2BCB6">
    <rect x="4" y="2" width="1" height="1"/>
    <rect x="11" y="2" width="1" height="1"/>
    <rect x="3" y="3" width="2" height="1"/>
    <rect x="11" y="3" width="2" height="1"/>
    <rect x="4" y="4" width="2" height="1"/>
    <rect x="10" y="4" width="2" height="1"/>
    <rect x="3" y="5" width="2" height="1"/>
    <rect x="6" y="5" width="4" height="1"/>
    <rect x="11" y="5" width="2" height="1"/>
    <rect x="2" y="6" width="2" height="2"/>
    <rect x="7" y="6" width="2" height="2"/>
    <rect x="12" y="6" width="2" height="2"/>
    <rect x="2" y="8" width="1" height="1"/>
    <rect x="4" y="8" width="8" height="1"/>
    <rect x="13" y="8" width="1" height="1"/>
    <rect x="2" y="9" width="4" height="1"/>
    <rect x="10" y="9" width="4" height="1"/>
    <rect x="3" y="10" width="3" height="1"/>
    <rect x="10" y="10" width="3" height="1"/>
    <rect x="3" y="11" width="2" height="1"/>
    <rect x="6" y="11" width="1" height="1"/>
    <rect x="9" y="11" width="1" height="1"/>
    <rect x="11" y="11" width="2" height="1"/>
    <rect x="4" y="12" width="1" height="1"/>
    <rect x="6" y="12" width="4" height="1"/>
    <rect x="11" y="12" width="1" height="1"/>
    <rect x="6" y="13" width="4" height="1"/>
  </g>
  <g fill="#E8E2DC">
    <rect x="3" y="2" width="1" height="1"/>
    <rect x="12" y="2" width="1" height="1"/>
    <rect x="6" y="9" width="4" height="1"/>
    <rect x="6" y="10" width="1" height="1"/>
    <rect x="9" y="10" width="1" height="1"/>
    <rect x="7" y="11" width="2" height="1"/>
  </g>
  <g fill="#726C68">
    <rect x="6" y="4" width="1" height="1"/>
    <rect x="9" y="4" width="1" height="1"/>
    <rect x="3" y="8" width="1" height="1"/>
    <rect x="12" y="8" width="1" height="1"/>
    <rect x="5" y="11" width="1" height="2"/>
    <rect x="10" y="11" width="1" height="2"/>
  </g>
  <g fill="#F0EDED">
    <rect x="7" y="4" width="2" height="1"/>
    <rect x="5" y="6" width="2" height="1"/>
    <rect x="9" y="6" width="2" height="1"/>
  </g>
  <g fill="#8BA35A">
    <rect x="5" y="7" width="1" height="1"/>
    <rect x="10" y="7" width="1" height="1"/>
  </g>
  <g fill="#1A1A1A">
    <rect x="6" y="7" width="1" height="1"/>
    <rect x="9" y="7" width="1" height="1"/>
  </g>
  <g fill="#C48B8B">
    <rect x="7" y="10" width="2" height="1"/>
  </g>
</svg>
